<svg xmlns="http://www.w3.org/2000/svg" xmlns:xlink="http://www.w3.org/1999/xlink" width="175" zoomAndPan="magnify" viewBox="0 0 131.25 30.000001" height="40" preserveAspectRatio="xMidYMid meet" version="1.0"><defs><g/></defs><path stroke-linecap="butt" transform="matrix(0.0412181, 0, 0, 0.0412181, 25.566301, 10.971378)" fill="none" stroke-linejoin="miter" d="M 150.02404 126.644217 L 150.02404 100.203286 L 40.279962 76.795007 L 150.02404 53.481498 L 150.02404 27.040568 L 14.028572 55.945528 L 14.028572 97.739257 Z M 172.674156 170.712435 L 202.52682 170.712435 L 252.37603 4.01137 L 222.523366 4.01137 Z M 271.140561 141.997015 L 368.09064 141.997015 C 403.155673 141.997015 433.671729 120.484143 433.671729 74.8996 C 433.671729 29.315056 403.155673 7.896955 368.09064 7.896955 L 271.140561 7.896955 Z M 301.372306 116.503788 L 301.372306 33.390182 L 355.486182 33.390182 C 385.717927 33.390182 403.345214 40.213648 403.345214 74.8996 C 403.345214 109.585552 385.717927 116.503788 355.486182 116.503788 Z M 450.540854 141.997015 L 592.317313 141.997015 L 592.317313 117.641033 L 480.772599 117.641033 L 480.772599 86.461584 L 592.317313 86.461584 L 592.317313 63.432386 L 480.772599 63.432386 L 480.772599 32.158167 L 592.317313 32.158167 L 592.317313 7.896955 L 450.540854 7.896955 Z M 680.074667 141.997015 L 719.688678 141.997015 L 792.377545 7.896955 L 758.070674 7.896955 L 699.786902 117.07241 L 641.597901 7.896955 L 607.29103 7.896955 Z M 813.037483 126.644217 L 949.127721 97.739257 L 949.127721 55.945528 L 813.037483 27.040568 L 813.037483 53.481498 L 922.876331 76.795007 L 813.037483 100.203286 Z M 813.037483 126.644217 " stroke="#fffb00" stroke-width="5.509851" stroke-opacity="1" stroke-miterlimit="4"/><g fill="#ff0000" fill-opacity="1"><g transform="translate(67.89011, 17.1673)"><g><path d="M 3.957031 0.078125 C 5.933594 0.078125 7.371094 -0.191406 7.371094 -1.660156 C 7.371094 -3.050781 6.019531 -3.160156 3.839844 -3.285156 C 2.125 -3.390625 1.753906 -3.5 1.753906 -3.980469 C 1.753906 -4.4375 2.125 -4.605469 3.632812 -4.605469 C 5.238281 -4.605469 5.886719 -4.421875 5.886719 -3.726562 L 7.132812 -3.726562 C 7.132812 -5.085938 5.859375 -5.609375 3.792969 -5.609375 C 1.753906 -5.609375 0.503906 -5.261719 0.503906 -4.042969 C 0.503906 -2.8125 1.460938 -2.441406 3.839844 -2.324219 C 5.765625 -2.21875 6.121094 -2.140625 6.121094 -1.613281 C 6.121094 -1.121094 5.59375 -0.925781 4.035156 -0.925781 C 2.101562 -0.925781 1.554688 -1.222656 1.554688 -1.894531 L 0.308594 -1.894531 C 0.308594 -0.308594 1.691406 0.078125 3.957031 0.078125 Z M 3.957031 0.078125 "/></g></g></g><g fill="#ff0000" fill-opacity="1"><g transform="translate(75.567369, 17.1673)"><g><path d="M 0.308594 0 L 1.691406 0 L 2.363281 -1.222656 L 5.886719 -1.222656 L 6.554688 0 L 7.9375 0 L 4.929688 -5.53125 L 3.316406 -5.53125 Z M 2.84375 -2.1875 L 4.125 -4.511719 L 5.402344 -2.1875 Z M 2.84375 -2.1875 "/></g></g></g><g fill="#ff0000" fill-opacity="1"><g transform="translate(83.813313, 17.1673)"><g><path d="M 0.386719 0 L 1.636719 0 L 1.636719 -4.050781 L 4.15625 0 L 5.09375 0 L 7.605469 -4.050781 L 7.605469 0 L 8.855469 0 L 8.855469 -5.53125 L 7.101562 -5.53125 L 4.621094 -1.445312 L 2.140625 -5.53125 L 0.386719 -5.53125 Z M 0.386719 0 "/></g></g></g><g fill="#00ffff" fill-opacity="1"><g transform="translate(68.600392, 16.481384)"><g><path d="M 3.957031 0.078125 C 5.933594 0.078125 7.371094 -0.191406 7.371094 -1.660156 C 7.371094 -3.050781 6.019531 -3.160156 3.839844 -3.285156 C 2.125 -3.390625 1.753906 -3.5 1.753906 -3.980469 C 1.753906 -4.4375 2.125 -4.605469 3.632812 -4.605469 C 5.238281 -4.605469 5.886719 -4.421875 5.886719 -3.726562 L 7.132812 -3.726562 C 7.132812 -5.085938 5.859375 -5.609375 3.792969 -5.609375 C 1.753906 -5.609375 0.503906 -5.261719 0.503906 -4.042969 C 0.503906 -2.8125 1.460938 -2.441406 3.839844 -2.324219 C 5.765625 -2.21875 6.121094 -2.140625 6.121094 -1.613281 C 6.121094 -1.121094 5.59375 -0.925781 4.035156 -0.925781 C 2.101562 -0.925781 1.554688 -1.222656 1.554688 -1.894531 L 0.308594 -1.894531 C 0.308594 -0.308594 1.691406 0.078125 3.957031 0.078125 Z M 3.957031 0.078125 "/></g></g></g><g fill="#00ffff" fill-opacity="1"><g transform="translate(76.277651, 16.481384)"><g><path d="M 0.308594 0 L 1.691406 0 L 2.363281 -1.222656 L 5.886719 -1.222656 L 6.554688 0 L 7.9375 0 L 4.929688 -5.53125 L 3.316406 -5.53125 Z M 2.84375 -2.1875 L 4.125 -4.511719 L 5.402344 -2.1875 Z M 2.84375 -2.1875 "/></g></g></g><g fill="#00ffff" fill-opacity="1"><g transform="translate(84.523596, 16.481384)"><g><path d="M 0.386719 0 L 1.636719 0 L 1.636719 -4.050781 L 4.15625 0 L 5.09375 0 L 7.605469 -4.050781 L 7.605469 0 L 8.855469 0 L 8.855469 -5.53125 L 7.101562 -5.53125 L 4.621094 -1.445312 L 2.140625 -5.53125 L 0.386719 -5.53125 Z M 0.386719 0 "/></g></g></g><g fill="#fffb00" fill-opacity="1"><g transform="translate(68.245251, 16.824342)"><g><path d="M 3.957031 0.078125 C 5.933594 0.078125 7.371094 -0.191406 7.371094 -1.660156 C 7.371094 -3.050781 6.019531 -3.160156 3.839844 -3.285156 C 2.125 -3.390625 1.753906 -3.5 1.753906 -3.980469 C 1.753906 -4.4375 2.125 -4.605469 3.632812 -4.605469 C 5.238281 -4.605469 5.886719 -4.421875 5.886719 -3.726562 L 7.132812 -3.726562 C 7.132812 -5.085938 5.859375 -5.609375 3.792969 -5.609375 C 1.753906 -5.609375 0.503906 -5.261719 0.503906 -4.042969 C 0.503906 -2.8125 1.460938 -2.441406 3.839844 -2.324219 C 5.765625 -2.21875 6.121094 -2.140625 6.121094 -1.613281 C 6.121094 -1.121094 5.59375 -0.925781 4.035156 -0.925781 C 2.101562 -0.925781 1.554688 -1.222656 1.554688 -1.894531 L 0.308594 -1.894531 C 0.308594 -0.308594 1.691406 0.078125 3.957031 0.078125 Z M 3.957031 0.078125 "/></g></g></g><g fill="#fffb00" fill-opacity="1"><g transform="translate(75.92251, 16.824342)"><g><path d="M 0.308594 0 L 1.691406 0 L 2.363281 -1.222656 L 5.886719 -1.222656 L 6.554688 0 L 7.9375 0 L 4.929688 -5.53125 L 3.316406 -5.53125 Z M 2.84375 -2.1875 L 4.125 -4.511719 L 5.402344 -2.1875 Z M 2.84375 -2.1875 "/></g></g></g><g fill="#fffb00" fill-opacity="1"><g transform="translate(84.168454, 16.824342)"><g><path d="M 0.386719 0 L 1.636719 0 L 1.636719 -4.050781 L 4.15625 0 L 5.09375 0 L 7.605469 -4.050781 L 7.605469 0 L 8.855469 0 L 8.855469 -5.53125 L 7.101562 -5.53125 L 4.621094 -1.445312 L 2.140625 -5.53125 L 0.386719 -5.53125 Z M 0.386719 0 "/></g></g></g></svg>